<svg width="70" height="10" viewBox="0 0 70 10" fill="none" xmlns="http://www.w3.org/2000/svg">
<path fill-rule="evenodd" clip-rule="evenodd" d="M0 4.63324C0 4.50063 0.0526784 4.37346 0.146447 4.27969C0.240215 4.18592 0.367392 4.13324 0.5 4.13324L68.293 4.00063L65.146 0.854632C65.0521 0.760745 64.9994 0.633407 64.9994 0.500632C64.9994 0.367856 65.0521 0.240518 65.146 0.146631C65.2399 0.0527448 65.3673 3.1283e-09 65.5 0C65.6328 -3.1283e-09 65.7601 0.0527449 65.854 0.146631L69.854 4.14663C69.9006 4.19308 69.9375 4.24825 69.9627 4.309C69.9879 4.36974 70.0009 4.43486 70.0009 4.50063C70.0009 4.5664 69.9879 4.63152 69.9627 4.69226C69.9375 4.75301 69.9006 4.80819 69.854 4.85463L65.854 8.85463C65.7601 8.94852 65.6328 9.00126 65.5 9.00126C65.3673 9.00126 65.2399 8.94852 65.146 8.85463C65.0521 8.76075 64.9994 8.63341 64.9994 8.50063C64.9994 8.36786 65.0521 8.24052 65.146 8.14663L68.293 5.00063L0.5 5.13324C0.367392 5.13324 0.240215 5.08056 0.146447 4.98679C0.0526784 4.89303 0 4.76585 0 4.63324Z" fill="#CA9A55"/>
</svg>
