<svg id="Calque_1" data-name="Calque 1" xmlns="http://www.w3.org/2000/svg" viewBox="0 0 120 77">
  <defs>
    <style>
      .cls-1 {
        fill: #ffbe00;
      }
    </style>
  </defs>
  <rect class="cls-1" width="120" height="77"/>
  <path d="M54.22,55.93V68.38H42.37V55.93H15.45V44.84L38.65,8.61H54.22v38h7v9.31ZM42.37,19.11H42.2a42.83,42.83,0,0,1-4.31,8.38L25.7,46.62H42.37Z"/>
  <path d="M65.43,68.38V60.5C67,53.56,73.81,47.21,81.77,40.27c4-3.47,8.3-7.79,8.3-13.54,0-5.17-3.39-9.48-9.91-9.48-5.24,0-8.88,3.81-10.32,5.41l-6.27-8.29C69.33,9.37,74.66,7,82.7,7c10.5,0,20.41,6.1,20.41,18.29,0,10.24-6.52,15.07-13.72,21.59-3,2.79-9.06,8-9.82,11.51h24.64v10Z"/>
</svg>
