<?xml version="1.0" encoding="iso-8859-1"?>
<!-- Generator: Adobe Illustrator 14.0.0, SVG Export Plug-In . SVG Version: 6.00 Build 43363)  -->
<!DOCTYPE svg PUBLIC "-//W3C//DTD SVG 1.1//EN" "http://www.w3.org/Graphics/SVG/1.1/DTD/svg11.dtd">
<svg version="1.1" id="Calque_1" xmlns="http://www.w3.org/2000/svg" xmlns:xlink="http://www.w3.org/1999/xlink" x="0px" y="0px"
	 viewBox="0 0 120 77" style="enable-background:new 0 0 120 77;" xml:space="preserve">
<g>
	<rect  width="120" height="77" fill="#6E491E"/>
	<g>
		<path fill="#FFFFFF" d="M37.2,68.4H23.6c0-7.9,2.1-13,7.4-22.7l14.6-27.1h-29v-10h41.8v9.7C45.2,41.1,37.2,59,37.2,68.4z"/>
		<path fill="#FFFFFF" d="M77.8,69.8c-8.6,0-13.3-2.1-17.3-4.5l4.7-9.2c2.5,1.8,6.7,3.9,11.8,3.9c6.9,0,11.3-4.1,11.3-9.1
			c0-6.9-5.2-9.2-11.3-9.2h-6.2v-9.9h6.3c5.8,0,9.5-3,9.5-7.6c0-3.8-2.9-7.3-9.1-7.3c-5.5,0-9.1,2.6-11.1,4.3l-4.3-8.8
			C66.9,8.9,72.4,7,80,7c12.2,0,19.1,7.3,19.1,15.2c0,6.2-3.3,11.1-9.7,13.5v0.2c6.6,1.3,11.6,6.3,11.6,14.7
			C101.1,61.1,91.7,69.8,77.8,69.8z"/>
	</g>
</g>
</svg>
