<svg width="70" height="9" viewBox="0 0 70 9" fill="none" xmlns="http://www.w3.org/2000/svg">
<path fill-rule="evenodd" clip-rule="evenodd" d="M0 4.53388C0 4.40411 0.0526784 4.27966 0.146447 4.18791C0.240215 4.09615 0.367392 4.0446 0.5 4.0446L68.293 3.91484L65.146 0.836304C65.0521 0.744431 64.9994 0.619824 64.9994 0.489895C64.9994 0.359967 65.0521 0.23536 65.146 0.143487C65.2399 0.0516137 65.3672 3.06122e-09 65.5 0C65.6328 -3.06122e-09 65.7601 0.0516137 65.854 0.143487L69.854 4.05771C69.9006 4.10316 69.9375 4.15715 69.9627 4.21659C69.9879 4.27603 70.0009 4.33976 70.0009 4.40411C70.0009 4.46847 69.9879 4.5322 69.9627 4.59164C69.9375 4.65108 69.9006 4.70507 69.854 4.75052L65.854 8.66474C65.7601 8.75661 65.6328 8.80823 65.5 8.80823C65.3672 8.80823 65.2399 8.75661 65.146 8.66474C65.0521 8.57287 64.9994 8.44826 64.9994 8.31833C64.9994 8.1884 65.0521 8.0638 65.146 7.97192L68.293 4.89339L0.5 5.02316C0.367392 5.02316 0.240215 4.97161 0.146447 4.87985C0.0526784 4.78809 0 4.66364 0 4.53388Z" fill="#9C9C9C"/>
</svg>
